# xmcd
#
# Track frame offsets:
#	150
#	18015
#	35185
#	52435
#	69750
#	87525
#	102230
#	117490
#	134525
#	152342
#	170632
#	188137
#
# Disc length: 2742 seconds
#
# Revision: 1
# Processed by: cddbd v1.5.1PL0 Copyright (c) Steve Scherf et al.
# Submitted via: CDex 1.50Beta5
#
DISCID=a60ab40c
DTITLE=川中美幸 - 川中美幸Vol1
DYEAR=1900
DGENRE=
TTITLE0=越前岬
TTITLE1=ふたり酒
TTITLE2=あなたひとすじ
TTITLE3=ふたりぐらし
TTITLE4=花咲港
TTITLE5=酔わせて
TTITLE6=遣らず雨
TTITLE7=おれとおまえ
TTITLE8=盛り場渡し舟
TTITLE9=ふたりの春
TTITLE10=男じゃないか
TTITLE11=今夜は乾杯
EXTD=
EXTT0=
EXTT1=
EXTT2=
EXTT3=
EXTT4=
EXTT5=
EXTT6=
EXTT7=
EXTT8=
EXTT9=
EXTT10=
EXTT11=
PLAYORDER=
